<svg xmlns="http://www.w3.org/2000/svg" width="20" height="20" viewBox="0 0 20 20" fill="none">
  <path fill-rule="evenodd" clip-rule="evenodd" d="M13.6 2H2.4C2.18667 2 2 2.18667 2 2.4V13.6C2 13.8133 2.18667 14 2.4 14H13.6C13.8133 14 14 13.8133 14 13.6V2.4C14 2.18667 13.8133 2 13.6 2ZM2.8 2.8H5.73333V5.73333H2.8V2.8ZM2.8 6.53333H5.73333V9.46667H2.8V6.53333ZM5.73333 13.2H2.8V10.2667H5.73333V13.2ZM9.46667 13.2H6.53333V10.2667H9.46667V13.2ZM9.46667 9.46667H6.53333V6.53333H9.46667V9.46667ZM9.46667 5.73333H6.53333V2.8H9.46667V5.73333ZM13.2 13.2H10.2667V10.2667H13.2V13.2ZM13.2 9.46667H10.2667V6.53333H13.2V9.46667ZM13.2 5.73333H10.2667V2.8H13.2V5.73333Z" fill="white"/>
</svg>