<svg xmlns="http://www.w3.org/2000/svg" width="20" height="20" viewBox="0 0 20 20" fill="none">
  <path d="M12.6429 13.9889C12.5476 13.9889 12.4524 13.9389 12.381 13.889L8 9.24329L3.61905 13.889C3.52381 13.9889 3.35714 14.0389 3.2381 13.9639C3.09524 13.914 3 13.7641 3 13.6142V2.37465C3 2.17484 3.16667 2 3.35714 2H12.6429C12.8333 2 13 2.17484 13 2.37465V13.6142C13 13.7641 12.9048 13.914 12.7857 13.9639C12.7381 13.9889 12.6905 13.9889 12.6429 13.9889ZM8 8.49399C8.19048 8.49399 8.38095 8.56892 8.52381 8.71878L12.2857 12.7151V2.74931H3.71429V12.7151L7.47619 8.71878C7.61905 8.56892 7.80952 8.49399 8 8.49399Z" fill="#8E8E8E"/>
</svg>