<svg xmlns="http://www.w3.org/2000/svg" width="16" height="16" viewBox="0 0 16 16" fill="none">
  <g clip-path="url(#clip0_2_1799)">
    <path fill-rule="evenodd" clip-rule="evenodd" d="M9.31934 3.88281C7.93768 2.50115 5.69757 2.50115 4.31591 3.88281C2.93425 5.26446 2.93425 7.50458 4.31591 8.88624C5.69757 10.2679 7.93768 10.2679 9.31934 8.88624C10.701 7.50458 10.701 5.26446 9.31934 3.88281ZM3.60113 3.16803C5.37755 1.39161 8.2577 1.39161 10.0341 3.16803C11.6897 4.82365 11.8023 7.43798 10.3719 9.22399L12.7446 11.5967C12.942 11.7941 12.942 12.1141 12.7446 12.3115C12.5472 12.5089 12.2272 12.5089 12.0298 12.3115L9.6571 9.93877C7.87109 11.3692 5.25675 11.2566 3.60113 9.60101C1.82471 7.82459 1.82471 4.94445 3.60113 3.16803Z" fill="#9C9C9C" stroke="#9C9C9C" stroke-width="0.4" stroke-linecap="round" stroke-linejoin="round"/>
  </g>
  <defs>
    <clipPath id="clip0_2_1799">
      <rect width="16" height="16" fill="white"/>
    </clipPath>
  </defs>
</svg>